<svg xmlns="http://www.w3.org/2000/svg" width="32" height="32" viewBox="0 0 32 32" fill="none">
  <path opacity="0.5" fill-rule="evenodd" clip-rule="evenodd" d="M8.3335 11C8.3335 10.4477 8.78122 10 9.3335 10H21.6668V12H9.3335C8.78122 12 8.3335 11.5523 8.3335 11Z" fill="white"/>
  <path d="M21.6665 12V19C21.6665 19.4045 21.9101 19.7691 22.2838 19.9239C22.6574 20.0787 23.0876 19.9932 23.3736 19.7072L31.3736 11.7072C31.5612 11.5196 31.6665 11.2652 31.6665 11C31.6665 10.7348 31.5612 10.4804 31.3736 10.2929L23.3736 2.29292C23.0876 2.00692 22.6574 1.92137 22.2838 2.07615C21.9101 2.23093 21.6665 2.59557 21.6665 3.00003V10V12Z" fill="white"/>
</svg>