<svg xmlns="http://www.w3.org/2000/svg" width="24" height="24" viewBox="0 0 24 24" fill="none">
  <path d="M15.9368 17.625C15.7876 17.625 15.6445 17.6843 15.5391 17.7898C15.4336 17.8952 15.3743 18.0383 15.3743 18.1875V19.875H4.12494V6.375H6.37481V6.9375C6.37481 7.08668 6.43407 7.22976 6.53955 7.33525C6.64504 7.44074 6.7881 7.5 6.93728 7.5H12.562C12.7111 7.5 12.8542 7.44074 12.9597 7.33525C13.0652 7.22976 13.1244 7.08668 13.1244 6.9375V6.375H15.3743V6.9375C15.3743 7.08668 15.4336 7.22976 15.5391 7.33525C15.6445 7.44074 15.7876 7.5 15.9368 7.5C16.086 7.5 16.229 7.44074 16.3345 7.33525C16.44 7.22976 16.4992 7.08668 16.4992 6.9375V5.8125C16.4992 5.66332 16.44 5.52024 16.3345 5.41475C16.229 5.30926 16.086 5.25 15.9368 5.25H13.1244V4.6875C13.1244 4.23995 12.9467 3.81073 12.6302 3.49426C12.3138 3.17779 11.8846 3 11.437 3H8.06222C7.61469 3 7.18549 3.17779 6.86904 3.49426C6.55259 3.81073 6.37481 4.23995 6.37481 4.6875V5.25H3.56247C3.41329 5.25 3.27023 5.30926 3.16474 5.41475C3.05926 5.52024 3 5.66332 3 5.8125V20.4375C3 20.5867 3.05926 20.7298 3.16474 20.8352C3.27023 20.9407 3.41329 21 3.56247 21H15.9368C16.086 21 16.229 20.9407 16.3345 20.8352C16.44 20.7298 16.4992 20.5867 16.4992 20.4375V18.1875C16.4992 18.0383 16.44 17.8952 16.3345 17.7898C16.229 17.6843 16.086 17.625 15.9368 17.625ZM7.49975 4.6875C7.49975 4.53832 7.55901 4.39524 7.66449 4.28975C7.76998 4.18426 7.91304 4.125 8.06222 4.125H11.437C11.5862 4.125 11.7293 4.18426 11.8348 4.28975C11.9402 4.39524 11.9995 4.53832 11.9995 4.6875V6.375H7.49975V4.6875ZM20.8348 9.91425L18.5849 7.66425C18.5326 7.61187 18.4706 7.57031 18.4022 7.54195C18.3339 7.51359 18.2606 7.49899 18.1867 7.49899C18.1127 7.49899 18.0394 7.51359 17.9711 7.54195C17.9027 7.57031 17.8407 7.61187 17.7884 7.66425L11.0388 14.4142C10.9866 14.4666 10.9452 14.5287 10.917 14.597C10.8889 14.6654 10.8744 14.7386 10.8746 14.8125V17.0625C10.8746 17.2117 10.9338 17.3548 11.0393 17.4602C11.1448 17.5657 11.2879 17.625 11.437 17.625H13.6869C13.7608 17.6251 13.834 17.6107 13.9024 17.5825C13.9707 17.5543 14.0328 17.513 14.0851 17.4608L20.8348 10.7108C20.8871 10.6585 20.9287 10.5964 20.957 10.5281C20.9854 10.4598 21 10.3865 21 10.3125C21 10.2385 20.9854 10.1652 20.957 10.0969C20.9287 10.0286 20.8871 9.9665 20.8348 9.91425ZM11.9995 16.5V15.0454L18.1867 8.85788L19.6412 10.3125L13.454 16.5H11.9995ZM9.74962 17.0625C9.74962 17.2117 9.69036 17.3548 9.58488 17.4602C9.4794 17.5657 9.33633 17.625 9.18715 17.625H6.93728C6.7881 17.625 6.64504 17.5657 6.53955 17.4602C6.43407 17.3548 6.37481 17.2117 6.37481 17.0625C6.37481 16.9133 6.43407 16.7702 6.53955 16.6648C6.64504 16.5593 6.7881 16.5 6.93728 16.5H9.18715C9.33633 16.5 9.4794 16.5593 9.58488 16.6648C9.69036 16.7702 9.74962 16.9133 9.74962 17.0625ZM9.74962 13.6875C9.74962 13.8367 9.69036 13.9798 9.58488 14.0852C9.4794 14.1907 9.33633 14.25 9.18715 14.25H6.93728C6.7881 14.25 6.64504 14.1907 6.53955 14.0852C6.43407 13.9798 6.37481 13.8367 6.37481 13.6875C6.37481 13.5383 6.43407 13.3952 6.53955 13.2898C6.64504 13.1843 6.7881 13.125 6.93728 13.125H9.18715C9.33633 13.125 9.4794 13.1843 9.58488 13.2898C9.69036 13.3952 9.74962 13.5383 9.74962 13.6875ZM12.562 10.875H6.93728C6.7881 10.875 6.64504 10.8157 6.53955 10.7102C6.43407 10.6048 6.37481 10.4617 6.37481 10.3125C6.37481 10.1633 6.43407 10.0202 6.53955 9.91475C6.64504 9.80926 6.7881 9.75 6.93728 9.75H12.562C12.7111 9.75 12.8542 9.80926 12.9597 9.91475C13.0652 10.0202 13.1244 10.1633 13.1244 10.3125C13.1244 10.4617 13.0652 10.6048 12.9597 10.7102C12.8542 10.8157 12.7111 10.875 12.562 10.875Z" fill="url(#paint0_linear_8_539)"/>
  <defs>
    <linearGradient id="paint0_linear_8_539" x1="13.3114" y1="21" x2="24.2288" y2="-9.07969" gradientUnits="userSpaceOnUse">
      <stop stop-color="#5656E7"/>
      <stop offset="1" stop-color="#DD31FF"/>
    </linearGradient>
  </defs>
</svg>