<svg xmlns="http://www.w3.org/2000/svg" width="20" height="20" viewBox="0 0 20 20" fill="none">
  <path d="M18.3333 9.99984C18.3333 14.6022 14.6023 18.3332 9.99996 18.3332C5.39758 18.3332 1.66663 14.6022 1.66663 9.99984C1.66663 5.39746 5.39758 1.6665 9.99996 1.6665C14.6023 1.6665 18.3333 5.39746 18.3333 9.99984Z" fill="#60FE67"/>
  <path fill-rule="evenodd" clip-rule="evenodd" d="M10 6.0415C10.3452 6.0415 10.625 6.32133 10.625 6.6665V9.74092L12.5253 11.6413C12.7693 11.8853 12.7693 12.281 12.5253 12.5251C12.2812 12.7692 11.8855 12.7692 11.6414 12.5251L9.55808 10.4418C9.44083 10.3246 9.375 10.1656 9.375 9.99984V6.6665C9.375 6.32133 9.65483 6.0415 10 6.0415Z" fill="#262626"/>
</svg>