<svg xmlns="http://www.w3.org/2000/svg" width="24" height="24" viewBox="0 0 24 24" fill="none">
  <g clip-path="url(#clip0_8_475)">
    <path d="M1.01998 8.48848V12H0.47998V8.48773C0.47998 6.82198 1.48648 5.36548 2.99023 4.76098C2.43148 4.31173 2.09248 3.62548 2.09248 2.88748C2.09248 1.55998 3.17248 0.47998 4.49998 0.47998C5.82748 0.47998 6.90748 1.55998 6.90748 2.88748C6.90748 3.62548 6.56848 4.31098 6.00973 4.76173C7.51348 5.36623 8.51998 6.82273 8.51998 8.48848V12H7.97998V8.48773C7.97998 6.86773 6.87973 5.47573 5.30548 5.10223C5.19298 5.07598 5.10973 4.97998 5.09923 4.86523C5.08873 4.74973 5.15248 4.64023 5.25823 4.59298C5.93248 4.29298 6.36823 3.62323 6.36823 2.88673C6.36823 1.85698 5.53048 1.01923 4.50073 1.01923C3.47098 1.01923 2.63248 1.85773 2.63248 2.88748C2.63248 3.62398 3.06823 4.29373 3.74248 4.59373C3.84823 4.64098 3.91198 4.75048 3.90148 4.86523C3.89098 4.98073 3.80773 5.07673 3.69448 5.10298C2.12023 5.47648 1.01998 6.86848 1.01998 8.48848ZM21.0105 16.0117C21.5692 15.561 21.9082 14.8747 21.9082 14.1375C21.9082 12.8092 20.8282 11.73 19.5 11.73C18.1717 11.73 17.0917 12.8092 17.0917 14.1375C17.0917 14.8747 17.4307 15.561 17.9895 16.0117C16.4857 16.6162 15.4792 18.0727 15.4792 19.7385V23.25H16.02V19.7377C16.02 18.1177 17.1195 16.7257 18.6937 16.3522C18.8062 16.3252 18.8895 16.23 18.9 16.1145C18.9112 15.9997 18.8467 15.8895 18.741 15.843C18.0667 15.5437 17.6317 14.874 17.6317 14.1375C17.6317 13.1077 18.4695 12.27 19.4992 12.27C20.529 12.27 21.3667 13.1077 21.3667 14.1375C21.3667 14.874 20.9317 15.5437 20.2575 15.843C20.1517 15.8895 20.0872 15.9997 20.0985 16.1145C20.1097 16.23 20.1922 16.3252 20.3047 16.3522C21.8797 16.7257 22.9785 18.1177 22.9785 19.7377V23.25H23.5192V19.7377C23.52 18.0727 22.5142 16.6155 21.0105 16.0117ZM4.76998 17.25V13.4017L6.55948 15.1912L6.94123 14.8087L4.49998 12.3682L2.05948 14.8087L2.44123 15.1912L4.23073 13.4017V17.25C4.23073 19.053 5.69773 20.52 7.50073 20.52H14.2507V19.98H7.50073C5.99473 19.98 4.76998 18.7552 4.76998 17.25ZM19.23 5.99998V9.84748L17.4412 8.05873L17.0587 8.44048L19.5 10.8817L21.9412 8.44048L21.5587 8.05873L19.77 9.84748V5.99998C19.77 4.19698 18.303 2.72998 16.5 2.72998H8.24998V3.26998H16.5C18.0052 3.26998 19.23 4.49473 19.23 5.99998Z" fill="url(#paint0_linear_8_475)"/>
  </g>
  <defs>
    <linearGradient id="paint0_linear_8_475" x1="13.6782" y1="23.25" x2="27.3643" y2="-14.904" gradientUnits="userSpaceOnUse">
      <stop stop-color="#5656E7"/>
      <stop offset="1" stop-color="#DD31FF"/>
    </linearGradient>
    <clipPath id="clip0_8_475">
      <rect width="24" height="24" fill="white"/>
    </clipPath>
  </defs>
</svg>