<svg xmlns="http://www.w3.org/2000/svg" width="16" height="16" viewBox="0 0 16 16" fill="none">
  <g clip-path="url(#clip0_8_601)">
    <path d="M14.1866 4.26654L7.8266 10.6265C7.19327 11.2598 5.31325 11.5532 4.89325 11.1332C4.47325 10.7132 4.75991 8.83317 5.39325 8.19984L11.7599 1.83318C11.9169 1.66189 12.107 1.5242 12.3187 1.4284C12.5304 1.3326 12.7593 1.28066 12.9917 1.27577C13.2239 1.27088 13.4549 1.31311 13.6704 1.39992C13.8859 1.48672 14.0817 1.61632 14.2457 1.78086C14.4098 1.94539 14.5389 2.14146 14.6251 2.35723C14.7113 2.57301 14.7529 2.80401 14.7474 3.03631C14.7419 3.26861 14.6893 3.4974 14.5929 3.70884C14.4965 3.92027 14.3583 4.11 14.1866 4.26654Z" stroke="url(#paint0_linear_8_601)" stroke-linecap="round" stroke-linejoin="round"/>
    <path d="M7.33331 2.6665H3.99998C3.29273 2.6665 2.6145 2.94745 2.1144 3.44755C1.61431 3.94765 1.33331 4.62592 1.33331 5.33317V11.9998C1.33331 12.7071 1.61431 13.3854 2.1144 13.8854C2.6145 14.3856 3.29273 14.6665 3.99998 14.6665H11.3333C12.8066 14.6665 13.3333 13.4665 13.3333 11.9998V8.6665" stroke="url(#paint1_linear_8_601)" stroke-linecap="round" stroke-linejoin="round"/>
  </g>
  <defs>
    <linearGradient id="paint0_linear_8_601" x1="5.88726" y1="5.04567" x2="16.1686" y2="4.99441" gradientUnits="userSpaceOnUse">
      <stop stop-color="#280BF3"/>
      <stop offset="1" stop-color="#FB4FFD"/>
    </linearGradient>
    <linearGradient id="paint1_linear_8_601" x1="2.75617" y1="7.1665" x2="15.0292" y2="7.1053" gradientUnits="userSpaceOnUse">
      <stop stop-color="#280BF3"/>
      <stop offset="1" stop-color="#FB4FFD"/>
    </linearGradient>
    <clipPath id="clip0_8_601">
      <rect width="16" height="16" fill="white"/>
    </clipPath>
  </defs>
</svg>