<svg xmlns="http://www.w3.org/2000/svg" width="24" height="24" viewBox="0 0 24 24" fill="none">
  <path fill-rule="evenodd" clip-rule="evenodd" d="M5.1492 5.63058C5.27895 6.11578 5.5054 6.58298 5.8085 7.00838H3.5C2.67086 7.00838 2 7.67923 2 8.50838V9.50838C2 10.3375 2.67086 11.0084 3.5 11.0084H11.5V19.5084C11.5 19.7845 11.7238 20.0084 12 20.0084C12.2761 20.0084 12.5 19.7845 12.5 19.5084V11.0084H20V20.5084C20 20.7852 19.7768 21.0084 19.5 21.0084H4.5C4.22314 21.0084 4 20.7852 4 20.5084V12.5204C4 12.2442 3.77614 12.0204 3.5 12.0204C3.22386 12.0204 3 12.2442 3 12.5204V20.5084C3 21.3375 3.67086 22.0084 4.5 22.0084H19.5C20.3291 22.0084 21 21.3375 21 20.5084V10.9232C21.5829 10.7175 22 10.1621 22 9.50838V8.50838C22 7.67923 21.3291 7.00838 20.5 7.00838H18.1929C18.4958 6.58338 18.7222 6.11633 18.8527 5.63073C19.3803 3.6606 18.1649 2.00098 16.1739 2.00098C15.1636 2.00098 14.0554 2.43213 13.1638 3.14812C12.9485 3.32102 12.9141 3.63573 13.087 3.85104C13.2599 4.06636 13.5746 4.10074 13.7899 3.92783C14.5121 3.34792 15.4038 3.00098 16.1739 3.00098C17.496 3.00098 18.2471 4.0265 17.8869 5.37163C17.7265 5.96843 17.3661 6.54348 16.8697 7.00838H12.5V6.54133C12.5006 6.53223 12.5009 6.52303 12.501 6.51383C12.5051 6.16363 12.458 5.66978 12.3766 5.36998C11.885 3.53402 9.75525 2.00098 7.8281 2.00098C5.8361 2.00098 4.62049 3.66074 5.1492 5.63058ZM6.1151 5.37178C6.27445 5.96758 6.63485 6.54263 7.1315 7.00838H11.5V6.50838C11.5 6.49613 11.5004 6.48398 11.5013 6.47193C11.5013 6.20688 11.4634 5.82298 11.4111 5.63033C11.0395 4.24259 9.3146 3.00098 7.8281 3.00098C6.505 3.00098 5.754 4.02635 6.1151 5.37178ZM12.5 10.0084H20.5C20.7768 10.0084 21 9.78523 21 9.50838V8.50838C21 8.23153 20.7768 8.00838 20.5 8.00838H12.5V10.0084ZM11.5 8.00838H3.5C3.22314 8.00838 3 8.23153 3 8.50838V9.50838C3 9.78523 3.22314 10.0084 3.5 10.0084H11.5V8.00838Z" fill="url(#paint0_linear_8_531)"/>
  <defs>
    <linearGradient id="paint0_linear_8_531" x1="4.37143" y1="9.50375" x2="24.8265" y2="9.40178" gradientUnits="userSpaceOnUse">
      <stop stop-color="#280BF3"/>
      <stop offset="1" stop-color="#FB4FFD"/>
    </linearGradient>
  </defs>
</svg>