<svg xmlns="http://www.w3.org/2000/svg" width="25" height="25" viewBox="0 0 25 25" fill="none">
  <path d="M9.37508 18.2292C9.37508 19.6674 8.20915 20.8333 6.77091 20.8333C5.33267 20.8333 4.16675 19.6674 4.16675 18.2292C4.16675 16.7909 5.33267 15.625 6.77091 15.625C8.20915 15.625 9.37508 16.7909 9.37508 18.2292ZM9.37508 18.2292H15.7553M15.7553 18.2292H19.5313C19.6752 18.2292 19.7917 18.3457 19.7917 18.4896V20.8333M15.7553 18.2292V20.8333" stroke="white" stroke-linecap="round" stroke-linejoin="round"/>
  <path d="M7.8125 9.375C8.67544 9.375 9.375 8.67544 9.375 7.8125C9.375 6.94956 8.67544 6.25 7.8125 6.25C6.94956 6.25 6.25 6.94956 6.25 7.8125C6.25 8.67544 6.94956 9.375 7.8125 9.375Z" fill="white"/>
  <path d="M12.5 9.375C13.3629 9.375 14.0625 8.67544 14.0625 7.8125C14.0625 6.94956 13.3629 6.25 12.5 6.25C11.6371 6.25 10.9375 6.94956 10.9375 7.8125C10.9375 8.67544 11.6371 9.375 12.5 9.375Z" fill="white"/>
  <path d="M17.1875 9.375C18.0504 9.375 18.75 8.67544 18.75 7.8125C18.75 6.94956 18.0504 6.25 17.1875 6.25C16.3246 6.25 15.625 6.94956 15.625 7.8125C15.625 8.67544 16.3246 9.375 17.1875 9.375Z" fill="white"/>
</svg>