<svg xmlns="http://www.w3.org/2000/svg" width="20" height="20" viewBox="0 0 20 20" fill="none">
  <g clip-path="url(#clip0_8_631)">
    <path d="M12.793 2.09844C12.9706 2.07523 13.1519 2.06363 13.3325 2.06363C13.3814 2.06363 13.4308 2.06426 13.4797 2.06668H13.4864C13.592 2.06668 13.6793 1.98246 13.6829 1.87625C13.6866 1.76762 13.6017 1.67605 13.4931 1.67238H13.4729H13.4705L13.468 1.67176H13.4662H13.465H13.4619H13.4613H13.4595C13.4302 1.67113 13.4009 1.66992 13.3716 1.66992H13.3667H13.3661H13.3642H13.3612H13.3606H13.3594H13.3582H13.357H13.3557H13.3545H13.3533H13.3521H13.3509H13.3497H13.3485H13.3473H13.3454H13.3448H13.3436H13.3424H13.3398H13.3374H13.3349H13.3325H13.33H13.3282H13.3275H13.3263H13.3251H13.3233H13.3227H13.3208H13.3203H13.3191H13.3179H13.3167H13.3161H13.3142H13.3136H13.3118H13.3106H13.3093H13.3087H13.3069H13.3044H13.302H13.3001H13.2995H13.2983H13.2971H13.2952H13.2946H13.2928H13.2922H13.2909H13.2897H13.2885H13.2879H13.2861H13.2854H13.2836H13.2824H13.2813H13.2806H13.2788H13.277H13.2763H13.2739H13.272H13.2714H13.2702H13.269H13.2678H13.2672L13.2653 1.67055H13.2641H13.2629H13.2617H13.2605H13.2599H13.2581H13.2556H13.255H13.2531H13.2525H13.2513H13.2507H13.2488H13.2482H13.2464H13.2457H13.2445H13.2433L13.2422 1.67117H13.241H13.2398H13.2391H13.2373H13.2361H13.2349H13.2337H13.2325H13.2318H13.23H13.2275H13.2251H13.2232H13.2227H13.2208H13.2202H13.2177H13.2165H13.2153H13.2141H13.2129H13.2117H13.2111L13.2092 1.6718H13.208H13.2068H13.2062H13.2043H13.2025H13.2019H13.1994H13.197H13.1957L13.1945 1.67242H13.1933H13.1921H13.1903H13.1897H13.1884H13.1872H13.186H13.1854H13.1836H13.1811H13.1799H13.1787H13.1781H13.1769H13.1763H13.175H13.1738H13.172H13.1714L13.1702 1.67305H13.169H13.1677H13.1665H13.1653H13.1647H13.1629H13.1616H13.1604L13.1598 1.67367H13.158H13.1555H13.1531H13.1506H13.1494H13.1482H13.147H13.1457H13.1439H13.1433H13.1421H13.1409L13.1397 1.6743H13.139H13.1372H13.1347H13.1323H13.1298H13.128H13.1273H13.125H13.1232H13.1225L13.1213 1.67492H13.1201H13.1189H13.1183H13.1165H13.1158H13.114H13.1134H13.1115H13.1091H13.1066L13.1048 1.67555H13.1041H13.1023H13.1017H13.1005H13.0993L13.0956 1.67617H13.095H13.0931H13.0907H13.0859H13.0835L13.0816 1.6768H13.081H13.0773H13.0761L13.0749 1.67742H13.0743H13.0725H13.0676H13.0651H13.0627L13.0584 1.67805H13.0578H13.0566H13.0554L13.0541 1.67867H13.0493H13.0469H13.0444L13.0395 1.6793H13.0377H13.0371L13.031 1.67973H13.0304H13.0286H13.0261L13.0212 1.68035H13.0194H13.0188L13.0102 1.68098C12.9198 1.68707 12.8307 1.69625 12.7429 1.70723C12.6354 1.72066 12.5585 1.81953 12.572 1.92758C12.5854 2.02707 12.6696 2.09969 12.7673 2.09969L12.793 2.09844Z" fill="white"/>
    <path d="M11.4172 2.10352C11.3879 2.10352 11.3592 2.10961 11.3317 2.12305C11.2646 2.15539 11.1987 2.18898 11.134 2.22437L11.1217 2.23047L11.1193 2.23168L11.1156 2.23352V2.23414L11.1138 2.23477H11.1133L11.1096 2.23723L11.1078 2.23844H11.1071L11.1059 2.23906V2.23969L11.1035 2.2409L11.1023 2.24152H11.101L11.0998 2.24273L11.0974 2.24395L11.0962 2.24516H11.095L11.0937 2.2457V2.24633L11.0913 2.24695V2.24758L11.0901 2.2482L11.0889 2.24883H11.0876L11.087 2.24945L11.0864 2.25008L11.0846 2.25129H11.0839L11.0827 2.2525H11.0821L11.0809 2.25312L11.0803 2.25375L11.0784 2.25437L11.0778 2.255L11.0766 2.25562L11.076 2.25625H11.0753L11.0741 2.25687L11.0717 2.25871L11.0705 2.25934H11.0698L11.0686 2.25996H11.068L11.0643 2.26242L11.0625 2.26363L11.0583 2.26586L11.0565 2.26707H11.0559L11.0504 2.27012C10.9704 2.31527 10.8929 2.36227 10.8166 2.41234C10.7251 2.47156 10.6994 2.59301 10.7587 2.68457C10.7959 2.74254 10.8594 2.7743 10.9241 2.7743C10.9607 2.7743 10.9979 2.76391 11.0308 2.74254C11.1816 2.64488 11.3403 2.55637 11.5026 2.47824C11.6003 2.43125 11.6418 2.31344 11.5948 2.21578C11.5613 2.145 11.4905 2.10352 11.4172 2.10352Z" fill="white"/>
    <path d="M15.0598 2.00271L15.0562 2.00088H15.0555L15.0537 2.00025L15.0476 1.99779L15.0409 1.99475H15.0403C15.0061 1.98131 14.9719 1.96787 14.9365 1.95568C14.9145 1.94713 14.8913 1.94287 14.8681 1.94287C14.7888 1.94287 14.7131 1.99232 14.6838 2.07166C14.646 2.1742 14.6985 2.28713 14.8004 2.32494C14.9682 2.38721 15.1342 2.46045 15.2942 2.54404C15.3228 2.55869 15.354 2.56603 15.3845 2.56603C15.4559 2.56603 15.5249 2.52818 15.5597 2.46045C15.6103 2.36463 15.5725 2.24498 15.476 2.19494C15.357 2.13268 15.2343 2.07529 15.1092 2.02283L15.1025 2.02037L15.1006 2.01916L15.0964 2.01795L15.0939 2.01674L15.0903 2.0149L15.0878 2.01428L15.0817 2.01182L15.0756 2.00877H15.0744L15.0732 2.00814L15.0683 2.00631L15.0665 2.00568H15.0658L15.0622 2.00385V2.00322L15.0598 2.00271Z" fill="white"/>
    <path d="M8.35145 13.6226C8.12746 13.4285 7.79664 13.3125 7.35903 13.274L6.76942 13.2228C6.55883 13.202 6.40993 13.1519 6.32082 13.0744C6.23172 12.9969 6.18778 12.8864 6.18778 12.7424C6.18778 12.5813 6.25004 12.4519 6.37454 12.3518C6.49907 12.2523 6.69192 12.2022 6.95192 12.2022C7.15149 12.2022 7.34071 12.226 7.52079 12.2731C7.70145 12.3195 7.9102 12.4684 7.9102 12.4684C7.95782 12.4934 8.01578 12.483 8.05301 12.4452L8.40579 12.0875C8.43325 12.0594 8.44606 12.021 8.43997 11.9819C8.43387 11.9435 8.41067 11.9105 8.37586 11.8922C8.37586 11.8922 8.09938 11.6755 7.83629 11.6041C7.68188 11.5614 7.51465 11.5339 7.34008 11.5162V10.9858H6.58996V11.5272C6.50512 11.5406 6.4209 11.5565 6.34157 11.5797C6.15051 11.6346 5.98266 11.7176 5.83864 11.8287C5.6952 11.9386 5.58168 12.0747 5.49805 12.2352C5.41504 12.3957 5.37352 12.5788 5.37352 12.7839C5.37352 13.1544 5.48094 13.4315 5.69825 13.6146C5.91371 13.7965 6.22071 13.9076 6.61989 13.9467L7.2925 14.004C7.49758 14.0272 7.64286 14.0791 7.72829 14.1621C7.81496 14.2458 7.85707 14.3593 7.85707 14.5027C7.85707 14.7029 7.77039 14.8488 7.59582 14.944C7.42188 15.038 7.20094 15.0844 6.93543 15.0844C6.72485 15.0844 6.51368 15.0551 6.30004 14.9977C6.08704 14.9391 5.80567 14.695 5.80567 14.695C5.75684 14.6657 5.69457 14.673 5.65368 14.7133L5.27832 15.0887C5.25145 15.1155 5.23805 15.1533 5.24293 15.1912C5.24782 15.229 5.26981 15.2626 5.30274 15.2821C5.30274 15.2821 5.68664 15.6062 5.98024 15.6868C6.17313 15.7393 6.37637 15.7728 6.58996 15.7912V16.4064H7.34008V15.7783C7.4402 15.7649 7.53907 15.7484 7.63305 15.7246C7.84911 15.6685 8.03465 15.5842 8.18969 15.4701C8.34411 15.3572 8.4668 15.2174 8.55528 15.0514C8.64375 14.8854 8.68774 14.6919 8.68774 14.4691C8.68774 14.0987 8.57668 13.8167 8.35145 13.6226Z" fill="white"/>
    <path d="M6.96533 7.39258C3.48389 7.39258 0.661621 10.2148 0.661621 13.6963C0.661621 17.1777 3.48389 20 6.96533 20C10.4468 20 13.269 17.1777 13.269 13.6963C13.269 10.2148 10.4468 7.39258 6.96533 7.39258ZM6.96533 19.0149C4.03197 19.0149 1.64674 16.629 1.64674 13.6963C1.64674 10.7636 4.03201 8.3777 6.96533 8.3777C9.89748 8.3777 12.2839 10.7636 12.2839 13.6963C12.2839 16.629 9.89744 19.0149 6.96533 19.0149Z" fill="white"/>
    <path d="M6.40015 9.49223L6.42578 9.49039C6.60277 9.46781 6.78468 9.45621 6.96535 9.45621C7.01417 9.45621 7.063 9.45684 7.11183 9.45926H7.11917C7.22476 9.45926 7.31206 9.37504 7.3157 9.26883C7.31937 9.1602 7.2339 9.06863 7.12527 9.06496H7.10574H7.10327L7.10081 9.06434H7.10019H7.09835H7.09773H7.0971H7.09406H7.09222C7.06292 9.06371 7.03363 9.0625 7.00433 9.0625H6.99945H6.99824H6.99702H6.9964H6.99335H6.99218H6.99097H6.98976H6.98855H6.98734H6.9855H6.98488H6.98367H6.98246H6.98062H6.97999H6.97753H6.9757H6.97507H6.97265H6.97019H6.96956H6.96773H6.96527H6.96281H6.96035H6.95851H6.95788H6.95605H6.95542H6.95312H6.95191H6.9507H6.94949H6.94828H6.94706H6.94585H6.94464H6.94343H6.94222H6.94101H6.9398H6.93917H6.93734H6.93488H6.93425H6.93242H6.93058H6.92995H6.92812H6.92749H6.92503H6.92382H6.92261H6.9214H6.92019H6.91898H6.91777H6.91656H6.91535H6.91406H6.91285H6.91163H6.91101H6.90917H6.90671H6.90609H6.90425H6.90242H6.90179H6.89996H6.89933L6.89749 9.06313H6.89687H6.89566H6.89453H6.89331H6.8921H6.89089H6.89027H6.88843H6.88722H6.88601H6.88538H6.88355H6.88109H6.87863H6.87679H6.87617L6.87433 9.06375H6.8737H6.87187H6.87124H6.86941H6.86878H6.86757H6.86636H6.86515H6.86452H6.86269H6.86023H6.8596H6.85777H6.85714H6.85546H6.85363H6.853H6.85054H6.8487H6.84808H6.84624H6.84562H6.84441H6.8432L6.84199 9.06438H6.84077H6.83956H6.83835H6.83714H6.83652H6.83468H6.83222H6.82976H6.82792L6.8273 9.065H6.82546H6.82484H6.82238H6.82117H6.81995H6.81874H6.81753H6.8164H6.81577H6.81394H6.81273H6.81152H6.81089H6.80906H6.80722H6.8066H6.80413H6.80351L6.8023 9.06563H6.80167H6.79984H6.79921H6.798H6.79687H6.79566H6.79445H6.79324L6.79203 9.06625H6.79081H6.79019H6.78835H6.78589H6.78343H6.7816H6.78097H6.77913H6.77851H6.77605H6.77484H6.77363L6.77242 9.06687H6.7712H6.76999H6.76937H6.76753H6.76691H6.76507H6.76445H6.76261H6.76015H6.75781H6.75535L6.75413 9.0675H6.75292H6.75171H6.75109H6.74863H6.748H6.74679H6.74558H6.74437H6.74374H6.74191H6.73945L6.73699 9.06813H6.73453H6.73269H6.73206L6.72781 9.06875H6.72718H6.72597H6.72535H6.72351H6.71874H6.71628L6.71382 9.06938H6.70956H6.70894L6.70773 9.07H6.70652H6.70531H6.70468H6.70042H6.6998H6.69796H6.6955L6.69062 9.07063H6.68878H6.68816L6.68695 9.07125H6.68632H6.68206H6.68144H6.67968H6.67722L6.67234 9.07188H6.66988L6.66316 9.0725H6.66132H6.6607H6.65886L6.65398 9.07313H6.65152L6.64296 9.07375H6.64234C6.55261 9.07984 6.46351 9.0884 6.37562 9.1C6.26757 9.11344 6.19128 9.21231 6.20472 9.32035C6.21765 9.41961 6.30249 9.49223 6.40015 9.49223Z" fill="white"/>
    <path d="M5.22707 9.6084C5.19351 9.53758 5.12332 9.49609 5.04945 9.49609C5.02078 9.49609 4.99207 9.50219 4.96461 9.51562C4.89746 9.54797 4.83156 9.58156 4.76683 9.61695L4.75461 9.62305L4.75215 9.62426L4.74847 9.62609V9.62672L4.74601 9.62734L4.74234 9.6298L4.74051 9.63102H4.73988L4.73867 9.63164L4.73804 9.63227L4.73621 9.63289L4.73437 9.6341H4.73375L4.73254 9.63531H4.73191L4.73008 9.63652H4.72945L4.72824 9.63773H4.72761L4.72656 9.63828L4.72593 9.63891L4.7241 9.63953L4.72347 9.64016L4.72226 9.64078L4.72164 9.64141H4.72043L4.7198 9.64203L4.71859 9.64266L4.71676 9.64387L4.71554 9.64508H4.71433L4.71312 9.6457V9.64633L4.71066 9.64695V9.64758L4.70945 9.6482L4.70824 9.64867H4.70761L4.70699 9.6493L4.70453 9.65113L4.70332 9.65176H4.70211L4.7009 9.65238L4.69722 9.65484H4.6966L4.69476 9.65605L4.69051 9.65852L4.68867 9.65973L4.68258 9.66277C4.60324 9.70793 4.52511 9.75492 4.44883 9.805C4.35789 9.86422 4.33226 9.98566 4.39086 10.0772C4.42871 10.1352 4.49218 10.167 4.55687 10.167C4.59351 10.167 4.63011 10.1566 4.66308 10.1352C4.81445 10.0375 4.97316 9.94902 5.13488 9.8709C5.23316 9.82383 5.27465 9.70605 5.22707 9.6084Z" fill="white"/>
    <path d="M5.56643 17.7001C5.39674 17.6403 5.22952 17.5695 5.06901 17.4895C5.04034 17.4755 5.01042 17.4688 4.98049 17.4688C4.90846 17.4688 4.83889 17.5084 4.80471 17.5768C4.75588 17.6745 4.79495 17.7929 4.8926 17.8417C4.95241 17.8722 5.01346 17.9009 5.07573 17.9284L5.08182 17.9308L5.08792 17.9339V17.9345L5.09038 17.9351L5.09221 17.9357L5.09284 17.9364H5.09405L5.09467 17.937L5.09651 17.9376L5.09897 17.9388L5.10018 17.9395H5.10139L5.1026 17.9407L5.10506 17.9419L5.1069 17.9425H5.10752L5.10874 17.9431L5.10936 17.9438L5.1112 17.9444L5.11366 17.945V17.9456H5.11487L5.11608 17.9462L5.11729 17.9469H5.11792L5.11975 17.9481H5.12038L5.12159 17.9487L5.12221 17.9493L5.12342 17.95H5.12463L5.12526 17.9506L5.1271 17.9512L5.12772 17.9518H5.12893L5.12956 17.9525L5.13077 17.9531H5.13139L5.13323 17.9543H5.13444L5.13565 17.9549L5.13628 17.9555H5.1369L5.13811 17.9562L5.14057 17.9568V17.9574H5.14178L5.14299 17.958H5.14362L5.14424 17.9587L5.14792 17.9605H5.14913L5.15034 17.9611V17.9618L5.1546 17.9636H5.15522L5.15643 17.9642H5.15706L5.15827 17.9648H5.15889L5.16135 17.9661L5.16256 17.9667H5.16378L5.16499 17.9679L5.16987 17.9697L5.17108 17.9704H5.1717L5.17596 17.9722L5.17842 17.9728L5.18268 17.9753H5.18331L5.18452 17.9759L5.1894 17.9777L5.19061 17.9784H5.19124L5.19733 17.9814H5.19795L5.20405 17.9839L5.20526 17.9851H5.20588L5.21014 17.9863H5.21077L5.21198 17.9875H5.2126L5.21749 17.9893L5.2187 17.99L5.21991 17.9912H5.22053L5.22542 17.993H5.22725L5.23213 17.9955L5.23335 17.9961L5.23823 17.9979L5.23944 17.9986H5.24065L5.24491 18.0004L5.24674 18.001L5.25163 18.0035H5.25284L5.25346 18.0041L5.25467 18.0047H5.2553L5.25897 18.0066L5.26018 18.0072H5.26139V18.0078L5.26565 18.009L5.26627 18.0096H5.26749H5.2687L5.26991 18.0109L5.27237 18.0115L5.27299 18.0121H5.2742L5.27483 18.0127L5.27604 18.0134H5.27725L5.27846 18.014L5.27967 18.0146H5.28088L5.28151 18.0152L5.28213 18.0159H5.28335L5.28518 18.0171H5.28581L5.28702 18.0177H5.28823L5.28944 18.0183H5.29006L5.29069 18.0189L5.29253 18.0196L5.29315 18.0202L5.29436 18.0208H5.29557L5.29678 18.0214H5.29741L5.29924 18.0221H5.29987L5.30171 18.0233L5.30292 18.0239H5.30413L5.30534 18.0245L5.30655 18.0252L5.30776 18.0258H5.30838L5.3096 18.0264L5.31022 18.027L5.31268 18.0277L5.31389 18.0283H5.3151L5.31631 18.0289H5.31694L5.31878 18.0295L5.32124 18.0307L5.32307 18.0314L5.3237 18.032L5.32491 18.0326L5.32737 18.0332L5.32983 18.0345L5.33167 18.0351H5.33229L5.33596 18.0363L5.33842 18.0369C5.37139 18.0497 5.40374 18.0613 5.4367 18.0729C5.45807 18.0803 5.48002 18.0845 5.50202 18.0845C5.5826 18.0845 5.65948 18.0332 5.68756 17.9515C5.72331 17.8478 5.66897 17.7355 5.56643 17.7001Z" fill="white"/>
    <path d="M3.61695 16.298C3.57851 16.2479 3.5205 16.2217 3.46191 16.2217C3.41918 16.2217 3.37707 16.2357 3.34105 16.2632C3.25558 16.3304 3.23972 16.4536 3.30625 16.5397C3.34226 16.5855 3.37886 16.6306 3.41613 16.6758L3.41918 16.6795L3.42039 16.6807L3.42406 16.6843V16.685L3.42527 16.6856V16.6868L3.42648 16.6874V16.688L3.42769 16.6899L3.4289 16.6905V16.6917L3.43011 16.6923V16.693L3.43132 16.6942L3.43254 16.6948L3.43316 16.6954L3.43379 16.6966L3.43441 16.6979H3.43504L3.43625 16.6997L3.4375 16.7008L3.43812 16.7014L3.43875 16.7027L3.43996 16.7033L3.44117 16.7051L3.44238 16.7063L3.44359 16.7075L3.44422 16.7082L3.44668 16.7118L3.4473 16.7125L3.44851 16.7131V16.7137L3.45097 16.7174L3.45336 16.7185C3.53148 16.8101 3.61328 16.8973 3.69812 16.9822C3.73656 17.02 3.78664 17.0396 3.83668 17.0396C3.88797 17.0396 3.938 17.02 3.97707 16.9816C4.05398 16.9041 4.05277 16.7796 3.97586 16.7027C3.84886 16.5757 3.72804 16.4396 3.61695 16.298Z" fill="white"/>
    <path d="M2.55251 13.4306C2.652 13.4306 2.73743 13.3555 2.74782 13.2542C2.76614 13.0747 2.79665 12.8959 2.83817 12.7207C2.86259 12.6151 2.79665 12.5096 2.69106 12.4845L2.64528 12.479C2.55618 12.479 2.4756 12.5401 2.45423 12.631C2.40966 12.8208 2.37673 13.0155 2.35595 13.2139C2.34497 13.3213 2.4231 13.419 2.53173 13.4299L2.55251 13.4306Z" fill="white"/>
    <path d="M3.66333 11.0363C3.73169 10.952 3.71825 10.8275 3.63341 10.7591C3.59739 10.7298 3.55345 10.7158 3.5095 10.7158C3.45212 10.7158 3.39598 10.7409 3.35692 10.7884C3.32458 10.8287 3.29345 10.869 3.26231 10.9099L3.25927 10.9141L3.25805 10.9154L3.25438 10.9209H3.25376L3.2495 10.9264L3.24583 10.9319L3.24157 10.9374V10.938L3.23364 10.949C3.18114 11.0192 3.1311 11.0912 3.08348 11.165H3.08286L3.07919 11.1705V11.1712L3.07856 11.1724L3.0761 11.1748V11.1755L3.07548 11.1767L3.07485 11.1779V11.1785L3.07239 11.181L3.07177 11.1822L3.07114 11.1828V11.184H3.06993L3.06872 11.1865V11.1871L3.06809 11.1877L3.06747 11.1889L3.06684 11.1896L3.06622 11.1908L3.06559 11.1914L3.06497 11.1932L3.06434 11.1939L3.06372 11.1945L3.06309 11.1951L3.06247 11.1963L3.06184 11.1975L3.06122 11.1988L3.06059 11.1994L3.05997 11.2006L3.05934 11.2012L3.05872 11.2024L3.05809 11.203L3.05747 11.2049H3.05684L3.05622 11.2067L3.05559 11.2073L3.05497 11.2086H3.05434L3.05188 11.2128C3.03907 11.2323 3.02684 11.2519 3.01524 11.2714C2.95848 11.3642 2.98657 11.4856 3.07934 11.5424C3.11169 11.5626 3.1477 11.5717 3.18309 11.5717C3.24903 11.5717 3.31372 11.5388 3.35032 11.4777C3.44485 11.325 3.54981 11.1766 3.66333 11.0363Z" fill="white"/>
    <path d="M2.82162 14.5994C2.80146 14.5066 2.7197 14.4443 2.62935 14.4443L2.58724 14.448C2.48103 14.4712 2.4133 14.5762 2.4365 14.6824C2.47861 14.8765 2.53295 15.0663 2.59885 15.2512C2.62752 15.3312 2.70322 15.3819 2.78439 15.3819C2.80638 15.3819 2.82834 15.3776 2.85033 15.3703C2.95287 15.3336 3.00595 15.2207 2.96998 15.1182C2.90951 14.9491 2.8601 14.7745 2.82162 14.5994Z" fill="white"/>
    <path d="M9.3091 17.2666C9.27308 17.2666 9.23706 17.2764 9.2041 17.2971C9.0521 17.3917 8.8916 17.4778 8.72925 17.5529C8.63038 17.598 8.58644 17.7152 8.6316 17.8141C8.66456 17.8861 8.7366 17.9289 8.81105 17.9289C8.83851 17.9289 8.86597 17.9234 8.89285 17.9112C9.00148 17.8611 9.10831 17.8074 9.21269 17.7494L9.21453 17.7482H9.21515L9.21882 17.7457L9.22066 17.7445H9.22128L9.22495 17.7427L9.22617 17.7415H9.22738L9.22859 17.7403L9.23105 17.7391L9.23226 17.7384L9.23347 17.7378L9.23468 17.7372V17.7366L9.23714 17.7359V17.7353L9.23835 17.7347L9.23956 17.7341L9.24019 17.7334L9.24081 17.7328L9.24265 17.7322L9.24328 17.7316L9.24449 17.7309H9.2457L9.24632 17.7303L9.24695 17.7297L9.24816 17.7291L9.24999 17.7279H9.25062L9.25183 17.7272V17.7266L9.25304 17.726H9.25367L9.25671 17.7241L9.25792 17.7235L9.25913 17.7229H9.25976L9.26402 17.7198L9.26523 17.7192C9.31527 17.6905 9.36472 17.6606 9.41355 17.6307C9.5057 17.5727 9.53378 17.4519 9.4764 17.3591C9.43847 17.3002 9.37437 17.2666 9.3091 17.2666Z" fill="white"/>
    <path d="M10.8117 15.9167C10.7788 15.896 10.7422 15.8862 10.7055 15.8862C10.6408 15.8862 10.5774 15.918 10.5395 15.9766C10.4431 16.1279 10.3356 16.2751 10.2203 16.4124C10.1507 16.496 10.1617 16.6205 10.2453 16.6901C10.282 16.7212 10.3271 16.7358 10.3711 16.7358C10.4278 16.7358 10.4834 16.7121 10.5224 16.665C10.625 16.5436 10.7202 16.416 10.8093 16.2835L10.8105 16.2817H10.8111L10.813 16.278L10.8136 16.2774L10.8148 16.2756L10.816 16.2744L10.8172 16.2719H10.8179L10.8185 16.2707L10.8191 16.2695L10.8197 16.2683H10.8203L10.8215 16.2664V16.2658L10.8227 16.2646V16.264L10.8239 16.2628V16.2621L10.8251 16.2609V16.2603L10.8263 16.2591V16.2585L10.8275 16.2572V16.256L10.8288 16.2548L10.8294 16.2542L10.83 16.2536V16.2524L10.8312 16.2517L10.8337 16.2475L10.8343 16.2463H10.8349L10.8374 16.242V16.2414L10.8386 16.2402L10.8423 16.2347V16.234L10.8716 16.1889C10.9302 16.0974 10.9033 15.9753 10.8117 15.9167Z" fill="white"/>
    <path d="M11.3165 13.0239L11.3549 13.0202C11.4617 12.9989 11.5307 12.8957 11.51 12.7883L11.5051 12.7645V12.7639V12.7627H11.5045L11.5038 12.7578V12.7571L11.5032 12.7559V12.7553L11.5026 12.7504L11.502 12.7498L11.5013 12.7486V12.748V12.7468V12.7461L11.5007 12.7431L11.5001 12.7419V12.7413V12.74L11.4995 12.7388V12.7382L11.4988 12.7364V12.7352V12.7346V12.7334L11.4982 12.7322L11.4976 12.731V12.7298V12.7286L11.497 12.7273V12.7261L11.4963 12.7249V12.7243V12.7231V12.7225L11.4951 12.7206V12.72V12.7182V12.7175V12.7163L11.4945 12.7151L11.4939 12.7133V12.7114V12.7108L11.4933 12.709L11.4926 12.7084V12.7065L11.492 12.7041L11.4914 12.7022V12.7016V12.6998L11.4904 12.6955V12.6949L11.4898 12.6931V12.6925L11.488 12.6857V12.6839L11.4868 12.679L11.4861 12.6772L11.4843 12.6705V12.6699L11.4831 12.6613H11.4825C11.4599 12.56 11.4331 12.4599 11.4038 12.3623L11.4013 12.3531L11.397 12.3403V12.3397L11.3946 12.3318H11.394L11.3927 12.325V12.3245L11.3915 12.3226L11.3897 12.3159L11.3879 12.3098V12.3092L11.3866 12.3073L11.3854 12.3031V12.3025L11.3848 12.3006L11.3842 12.3L11.3836 12.2963H11.3829V12.2939L11.3817 12.292V12.2914V12.2896L11.3805 12.2877V12.2871L11.3799 12.2853V12.2846L11.3793 12.2828L11.3781 12.281V12.2804V12.2791V12.2779L11.3768 12.2767V12.2761L11.3762 12.2743L11.3756 12.2724V12.2718V12.27L11.3744 12.2693V12.2681V12.2675L11.3733 12.2659V12.2652V12.2634L11.3726 12.2628L11.372 12.2616V12.2609V12.2591L11.3708 12.2585V12.2573V12.2561L11.3702 12.2548L11.3695 12.2542V12.2536L11.3689 12.2518L11.3683 12.2505V12.2499V12.2487L11.3677 12.2475L11.3672 12.247V12.2457V12.2445L11.3659 12.2427V12.2421V12.2409L11.3653 12.2402L11.3647 12.239V12.2384L11.3641 12.2366L11.3634 12.2354V12.2341V12.2335L11.3628 12.2329L11.3622 12.2317L11.361 12.2274V12.2268L11.3604 12.2256H11.3597V12.2244V12.2232L11.3585 12.2207V12.2201V12.2189L11.3573 12.2177C11.3299 12.1353 11.2536 12.084 11.1711 12.084C11.1504 12.084 11.129 12.0864 11.1083 12.0938C11.0051 12.1286 10.9496 12.2402 10.9844 12.3434C11.0411 12.5137 11.0888 12.6895 11.1229 12.8652C11.1425 12.9592 11.2243 13.0239 11.3165 13.0239Z" fill="white"/>
    <path d="M7.45363 17.9097L7.43164 17.9109C7.27781 17.928 7.12098 17.9365 6.96531 17.9365C6.9409 17.9365 6.91586 17.9359 6.89145 17.9359H6.8884C6.78098 17.9359 6.69309 18.0213 6.69125 18.1288C6.68942 18.238 6.77547 18.3271 6.88414 18.3296C6.90488 18.3302 6.92504 18.3302 6.94578 18.3302H6.94641H6.94824H6.95192H6.95313H6.95434H6.95555H6.95676H6.95797H6.95981H6.96043H6.96227H6.96289H6.96535H6.96719H6.96781H6.96903H6.96965H6.97086H6.97149H6.9727H6.97391H6.97512H6.97574H6.97695H6.97758H6.97879H6.98H6.98063H6.98125H6.98246H6.98367H6.98488H6.98551H6.98672H6.98735H6.98856H6.98977H6.99344H6.99528H6.9959H6.99711H6.99832H6.99953H7.00074H7.00195H7.00317H7.00438H7.005H7.00563H7.00684H7.00805H7.00926H7.01047H7.01168H7.01289H7.01352H7.01535H7.01961H7.02024H7.02145H7.02207H7.02328H7.02391H7.02512H7.02633H7.02754H7.02875H7.02996H7.03125H7.03188H7.03371L7.03492 18.3296H7.03613H7.03735H7.03797H7.03981H7.0459H7.04774H7.04957H7.0502H7.05141H7.05203H7.05324H7.05445H7.05567L7.0575 18.329H7.05813H7.05934H7.05996H7.0618H7.06301H7.06422H7.06543H7.06606H7.07399H7.07582H7.07766H7.08012H7.08133H7.08254H7.08375H7.08621H7.08742H7.08988L7.10574 18.3278H7.1082H7.11004C7.23274 18.3241 7.35481 18.3155 7.47504 18.3027C7.58309 18.2905 7.66121 18.1935 7.64899 18.0848C7.63793 17.9847 7.5525 17.9097 7.45363 17.9097Z" fill="white"/>
    <path d="M11.3928 14.0393L11.3696 14.0381C11.2708 14.0381 11.1859 14.1113 11.1743 14.2114C11.1523 14.3897 11.1194 14.5685 11.0755 14.7425C11.048 14.848 11.1121 14.9549 11.2171 14.9817L11.2659 14.9878C11.3538 14.9878 11.4337 14.9286 11.4563 14.8401C11.4667 14.7998 11.4758 14.7602 11.4856 14.7205V14.7198V14.718L11.4868 14.7131V14.7113L11.4874 14.7107L11.4881 14.7095V14.7088V14.7064L11.4887 14.7057L11.4893 14.7045V14.7033V14.7027V14.7015V14.7003L11.4899 14.6991L11.4906 14.6979V14.6966V14.696V14.6948L11.4912 14.6936L11.4918 14.6924V14.6918V14.6899V14.6893L11.493 14.6875V14.6868V14.6856V14.685L11.4942 14.6807V14.6801V14.6783L11.4955 14.6764L11.4961 14.6716L11.4967 14.6697V14.6691L11.4979 14.663C11.526 14.53 11.5486 14.3951 11.5651 14.2584C11.5784 14.1504 11.5015 14.0527 11.3928 14.0393Z" fill="white"/>
    <path d="M8.43263 9.71764C8.60111 9.7799 8.76712 9.85314 8.92701 9.93674C8.95568 9.95139 8.98681 9.95873 9.01736 9.95873C9.08818 9.95873 9.15712 9.92088 9.19251 9.85314C9.24318 9.75732 9.20533 9.63768 9.10888 9.58764C8.98923 9.52537 8.86716 9.46799 8.74146 9.41553L8.73536 9.41307L8.73353 9.41186H8.7329L8.72923 9.41064L8.72677 9.40943L8.72251 9.4076L8.72068 9.40697L8.71458 9.40451H8.71396L8.70786 9.40146H8.70724L8.7054 9.40084L8.70115 9.399L8.69868 9.39838L8.69501 9.39654V9.39592L8.69255 9.39529L8.68829 9.39346H8.68767L8.68646 9.39283V9.39221L8.67974 9.39037L8.67302 9.38732C8.63884 9.37389 8.60404 9.36045 8.56927 9.34826C8.54669 9.33971 8.52411 9.33545 8.50091 9.33545C8.42095 9.33545 8.34587 9.3849 8.31658 9.46424C8.27884 9.56686 8.33072 9.67979 8.43263 9.71764Z" fill="white"/>
    <path d="M10.5151 11.2312C10.5567 11.2312 10.5975 11.2183 10.6335 11.1915C10.7202 11.1268 10.7373 11.0029 10.6726 10.9156C10.6061 10.8277 10.5371 10.7422 10.4651 10.6592H10.4644L10.4614 10.6555L10.4602 10.6543V10.6537L10.4571 10.6506L10.4565 10.65L10.4553 10.6488L10.4541 10.647L10.4529 10.6451V10.6446L10.4517 10.6434H10.451L10.4492 10.6422L10.448 10.6403V10.6397L10.4468 10.6385V10.6379L10.4456 10.6367L10.4444 10.636L10.4437 10.6348H10.4431L10.4419 10.6336V10.633L10.4407 10.6318V10.6312L10.4395 10.6299L10.4383 10.6293L10.4376 10.6281L10.437 10.6275L10.4364 10.6269L10.4358 10.6262L10.4346 10.6244L10.4333 10.6238V10.6226L10.4321 10.6219V10.6213L10.4309 10.6207L10.4297 10.6196L10.4291 10.6189L10.4284 10.6177L10.4278 10.6171L10.4272 10.6165L10.4247 10.6134L10.4235 10.6128L10.4229 10.6116H10.4223L10.4198 10.6079L10.4192 10.6073L10.4185 10.6067H10.4179L10.4149 10.603V10.6024L10.4137 10.6012V10.6005L10.41 10.5975L10.4088 10.5963V10.5956L10.4051 10.5926V10.592L10.4039 10.5908L10.3998 10.586H10.3991L10.3955 10.5811L10.3948 10.5805L10.3857 10.5707V10.5701C10.3539 10.5359 10.321 10.5011 10.288 10.4669C10.2496 10.4272 10.1983 10.4077 10.1471 10.4077C10.0976 10.4077 10.0482 10.426 10.0097 10.4633C9.93159 10.539 9.93038 10.6635 10.006 10.7416C10.1306 10.8704 10.249 11.0089 10.3576 11.1524C10.3955 11.2037 10.4553 11.2312 10.5151 11.2312Z" fill="white"/>
    <path d="M9.01305 5.08691C8.92395 5.08691 8.84278 5.14797 8.82141 5.23891C8.77684 5.42871 8.74391 5.62344 8.72313 5.8218C8.71215 5.92984 8.79086 6.02688 8.89891 6.03785L8.91965 6.03848C9.01914 6.03848 9.1052 5.9634 9.11496 5.86207C9.13329 5.68262 9.16379 5.50379 9.20532 5.32922C9.22973 5.22301 9.16442 5.11742 9.05883 5.09238L9.01305 5.08691Z" fill="white"/>
    <path d="M9.72415 3.39615C9.69239 3.43643 9.66067 3.47674 9.63016 3.5176L9.62649 3.52186L9.62528 3.52307L9.62161 3.52858L9.61735 3.53408L9.61309 3.54018L9.60938 3.54506V3.54569L9.60083 3.55666C9.54833 3.62686 9.49829 3.69889 9.45067 3.77272L9.447 3.77822V3.77885L9.44579 3.78006L9.44395 3.78252V3.78315L9.44333 3.78436L9.44212 3.78557V3.78619L9.43966 3.78865V3.78986L9.43903 3.79049L9.43841 3.7917H9.43778L9.43657 3.79416L9.43595 3.79479V3.79541L9.43473 3.79662V3.79725L9.43352 3.79846V3.79908L9.43231 3.80092V3.80154L9.4311 3.80217V3.80279L9.42989 3.80401V3.80522L9.42868 3.80643V3.80705L9.42747 3.80889L9.42626 3.8101V3.81072L9.42505 3.81256L9.42384 3.8144V3.81502L9.42262 3.81623V3.81686L9.42016 3.82053C9.40735 3.84006 9.39454 3.85959 9.38294 3.87975C9.32618 3.9719 9.35485 4.09338 9.44762 4.15014C9.47997 4.17029 9.51536 4.17944 9.55079 4.17944C9.61673 4.17944 9.68141 4.14647 9.71864 4.08545C9.81262 3.93287 9.91763 3.78455 10.0305 3.64416C10.0989 3.55994 10.0854 3.43541 10.0012 3.36705C9.96458 3.33776 9.92063 3.32373 9.87731 3.32373C9.81997 3.3235 9.76321 3.34854 9.72415 3.39615Z" fill="white"/>
    <path d="M14.9988 10.4218C15.0323 10.4938 15.1038 10.5366 15.1782 10.5366C15.2063 10.5366 15.2338 10.5311 15.26 10.5189C15.3693 10.4688 15.4761 10.4151 15.5799 10.3571L15.5823 10.3559L15.586 10.3534L15.5885 10.3528L15.5921 10.3504L15.594 10.3491H15.5946L15.5958 10.3479L15.5983 10.3467L15.5995 10.3461L15.6007 10.3455L15.6019 10.3448L15.6025 10.3442L15.6044 10.3436V10.343L15.6056 10.3423L15.6068 10.3417L15.608 10.3411V10.3405L15.6105 10.3398V10.3392L15.6117 10.3386H15.6129L15.6135 10.338L15.6141 10.3373L15.6153 10.3367L15.6172 10.3355H15.6178L15.619 10.3349H15.6196L15.6209 10.3337H15.6215L15.6239 10.3318L15.6251 10.3312L15.627 10.3306L15.6312 10.3275L15.6331 10.3269C15.6825 10.2982 15.7326 10.2683 15.7814 10.2384C15.873 10.1804 15.901 10.0596 15.8437 9.9668C15.8058 9.90758 15.7423 9.87402 15.6764 9.87402C15.641 9.87402 15.6044 9.88379 15.5721 9.90453C15.4195 9.99914 15.2596 10.0852 15.0966 10.1603C14.9976 10.2057 14.9536 10.3229 14.9988 10.4218Z" fill="white"/>
    <path d="M16.5882 9.01979C16.518 9.10342 16.5296 9.22791 16.6126 9.29748C16.6492 9.32861 16.6944 9.34326 16.7389 9.34326C16.7957 9.34326 16.8512 9.31947 16.8896 9.27244C16.9922 9.151 17.0874 9.02342 17.1765 8.89096H17.1771L17.1783 8.88912L17.1808 8.88545L17.1814 8.88482L17.1821 8.88361H17.1827L17.1839 8.88178L17.1851 8.87932L17.1857 8.87811L17.1864 8.87689L17.1876 8.87627V8.87564L17.1888 8.87381V8.87318L17.19 8.87197V8.87135L17.1912 8.87014V8.86951L17.1924 8.8683V8.86768L17.1936 8.86647V8.86584L17.1948 8.86463V8.86342L17.196 8.86221L17.1967 8.86158L17.1973 8.86096L17.1979 8.85975L17.1985 8.85912L17.201 8.85486L17.2022 8.85365L17.2047 8.84939V8.84877L17.2059 8.84814V8.84768L17.2096 8.84217V8.84154L17.2395 8.79639C17.2974 8.70482 17.2712 8.58275 17.179 8.52416C17.1467 8.50342 17.1095 8.49365 17.0735 8.49365C17.0081 8.49365 16.9447 8.52541 16.9068 8.584C16.8103 8.73537 16.7029 8.88248 16.5882 9.01979Z" fill="white"/>
    <path d="M17.7258 4.82629L17.7252 4.82508C17.6977 4.7427 17.6208 4.69141 17.5385 4.69141C17.5177 4.69141 17.4963 4.69387 17.4756 4.70117C17.3724 4.73598 17.3169 4.84766 17.3517 4.95082C17.4091 5.12109 17.4561 5.29687 17.4909 5.47266C17.5098 5.56664 17.5916 5.63137 17.6838 5.63137L17.7222 5.6277C17.829 5.60633 17.898 5.50316 17.8772 5.39574L17.8724 5.37195V5.37133V5.37012L17.8711 5.36523V5.36461V5.3634V5.36277L17.8699 5.35789V5.35727L17.8693 5.35664L17.8687 5.35543V5.35422V5.35359L17.8681 5.35055L17.8674 5.34934V5.34871V5.3475V5.34629V5.34566L17.8668 5.34383L17.8662 5.34262V5.34199V5.34078V5.33957L17.865 5.33836V5.33715V5.33594V5.33473L17.8643 5.33352V5.33227L17.8637 5.33164V5.33043V5.3298L17.8631 5.32797V5.32734L17.8625 5.32551V5.32488V5.32367V5.32246L17.8613 5.32125V5.32062V5.31879V5.31816L17.8606 5.31633V5.3157L17.86 5.31387V5.31141L17.8588 5.30957V5.30895V5.30711L17.8576 5.30285V5.30223V5.30039L17.857 5.29977L17.8558 5.29367L17.8551 5.29305V5.29121L17.8539 5.28633V5.28449L17.8521 5.27777V5.27715L17.8502 5.26859C17.827 5.16727 17.8008 5.06719 17.7709 4.96953L17.7685 4.96039L17.7648 4.94758V4.94695L17.7617 4.93902L17.7599 4.9323V4.93168L17.7587 4.92984L17.7575 4.92312L17.755 4.91703V4.91641L17.7544 4.91457H17.7539L17.7527 4.91031V4.90969V4.90785L17.7521 4.90723L17.7509 4.90355L17.7502 4.90109L17.7496 4.89926L17.749 4.89863V4.8968L17.7478 4.89496V4.89434V4.8925L17.7472 4.89187L17.7465 4.89066V4.89004L17.7459 4.8882V4.88758L17.7453 4.88637V4.88516L17.7447 4.88395L17.744 4.88332V4.88148L17.7428 4.87965V4.87902V4.87719L17.7422 4.87656L17.7416 4.87535V4.87473L17.741 4.87289V4.87227L17.7403 4.87043V4.8698L17.7397 4.86859L17.7391 4.86797V4.86613L17.7385 4.86551L17.7378 4.8643V4.86352V4.8623L17.7372 4.86168L17.7366 4.86105V4.85922L17.736 4.85801L17.7353 4.85738V4.85617V4.85496L17.7347 4.85434L17.7344 4.85312V4.85191L17.7338 4.85008L17.7331 4.84945V4.84824V4.84762L17.7319 4.84641V4.84578V4.84398L17.7307 4.84277V4.84156V4.84094L17.7301 4.84031V4.8391L17.7283 4.83484V4.83422V4.83301H17.7276L17.727 4.8318V4.83059L17.7258 4.82812V4.8275V4.82629H17.7258Z" fill="white"/>
    <path d="M13.252 10.9371C13.2727 10.9377 13.2929 10.9377 13.3136 10.9377H13.3142H13.3154H13.3161H13.3191H13.3203H13.3215H13.3227H13.324H13.3252H13.327H13.3276H13.3301H13.3325H13.3344H13.335H13.3362H13.3374H13.3386H13.3405H13.3411H13.3423H13.3435H13.3441H13.3448H13.346H13.3472H13.3484H13.349H13.3497H13.3509H13.3521H13.3533H13.3545H13.3557H13.3569H13.3606H13.3612H13.3631H13.3643H13.3655H13.3667H13.3673H13.3685H13.3691H13.3704H13.3716H13.3728H13.3734H13.374H13.3752H13.3765H13.3771H13.3783H13.3789H13.3801H13.3813H13.3825H13.3868H13.3874H13.3886H13.3899H13.3911H13.3923H13.3935H13.3947H13.3953H13.3965H13.3972H13.3984H13.3997H13.4009H13.4015L13.4021 10.9371H13.4033H13.4045H13.4052H13.407H13.4131H13.4149H13.4156H13.4168H13.418H13.4192H13.421H13.4216H13.4229L13.4253 10.9364H13.4265H13.4277H13.429H13.4296H13.4308H13.4314H13.4326H13.4333H13.4412H13.443H13.4436H13.4449H13.4455H13.4473H13.4491H13.4498H13.451H13.4534H13.4547H13.4553H13.4571L13.473 10.9352H13.4754H13.4779C13.6 10.9315 13.722 10.923 13.8429 10.9102C13.9503 10.8979 14.0284 10.8009 14.0168 10.6929C14.0059 10.5922 13.9204 10.5171 13.8209 10.5171L13.7995 10.5183C13.6457 10.5354 13.4889 10.5439 13.3326 10.5439C13.3082 10.5439 13.2838 10.5433 13.2594 10.5433H13.2557C13.1483 10.5433 13.0604 10.6294 13.0586 10.7362C13.0566 10.8455 13.1433 10.9346 13.252 10.9371Z" fill="white"/>
    <path d="M17.7369 6.64551C17.6386 6.64551 17.5537 6.71875 17.5416 6.81887C17.5196 6.99711 17.4866 7.17594 17.4427 7.34988C17.4158 7.45547 17.4793 7.5623 17.5849 7.58914L17.6331 7.59523C17.721 7.59523 17.8016 7.53602 17.8242 7.44754C17.8346 7.40727 17.8437 7.36758 17.8528 7.32789V7.32727V7.32543L17.8541 7.32055L17.8547 7.31871L17.8553 7.31809V7.31687V7.31625L17.8559 7.31379L17.8566 7.31316V7.31195V7.31074V7.31012V7.30891L17.8572 7.3077L17.8578 7.30648V7.30527V7.30406V7.30344L17.8584 7.30223L17.8591 7.30102V7.2998L17.8597 7.29734V7.29672L17.8603 7.29488V7.29426V7.29305V7.29242L17.8615 7.28816V7.2857H17.8621L17.8628 7.28387L17.864 7.27898V7.27715V7.27652L17.8652 7.27043C17.8933 7.13738 17.9165 7.0025 17.9323 6.86578C17.9458 6.75773 17.8689 6.66008 17.7608 6.64668L17.7369 6.64551Z" fill="white"/>
    <path d="M16.7529 3.17814V3.17752C16.7212 3.14334 16.6883 3.10854 16.6553 3.07436C16.6168 3.03467 16.5662 3.01514 16.5143 3.01514C16.4649 3.01514 16.4154 3.03346 16.377 3.07068C16.2988 3.14639 16.2976 3.2715 16.3733 3.349C16.4984 3.47779 16.6168 3.61635 16.7249 3.75979C16.7633 3.81107 16.8225 3.83854 16.8823 3.83854C16.9238 3.83854 16.9653 3.82572 17.0007 3.79885C17.0874 3.73416 17.1051 3.61084 17.0398 3.52295C16.9738 3.43506 16.9043 3.34959 16.8322 3.26658L16.8292 3.26291H16.8286L16.8274 3.2617V3.26107L16.8249 3.25803L16.8243 3.2574L16.8231 3.25619H16.8224L16.8212 3.25436L16.82 3.25252V3.25201L16.8188 3.2508H16.8182L16.817 3.24959H16.8164L16.8152 3.24775V3.24713L16.814 3.24592V3.24529L16.8128 3.24408H16.8122L16.8109 3.24225H16.8103L16.8091 3.24104V3.24041L16.8079 3.2392V3.23857L16.8067 3.23736L16.8054 3.23674V3.23611L16.8042 3.2349L16.8036 3.23428L16.803 3.23365L16.8018 3.23182L16.8011 3.23119L16.8005 3.22998L16.7999 3.22936L16.7993 3.22873L16.7981 3.22811L16.7969 3.22697V3.22635L16.7957 3.22572V3.22451L16.7945 3.22389L16.792 3.22084L16.7914 3.22021L16.7908 3.219H16.7895L16.7871 3.21533V3.21471L16.7859 3.21408L16.7822 3.21041V3.20979L16.781 3.20857L16.7773 3.2049L16.7761 3.20369V3.20318L16.7724 3.20014V3.19951L16.7718 3.1983H16.7712L16.7675 3.19342H16.7669L16.7626 3.18854V3.18791L16.7529 3.17814Z" fill="white"/>
    <path d="M2.47559 4.82973C2.99195 4.06617 3.6377 3.39906 4.37746 2.85281L4.83645 3.82754L7.45547 1.08461L3.46312 0.908203L3.9502 1.94336C3.05297 2.57691 2.27539 3.36793 1.66016 4.27855C0.686055 5.71898 0.117188 7.45852 0.117188 9.32738H1.1023C1.1023 7.6593 1.60891 6.11449 2.47559 4.82973Z" fill="white"/>
    <path d="M18.8977 11.165C18.8977 12.7831 18.4216 14.2852 17.6013 15.5468C17.0715 16.361 16.3952 17.0714 15.614 17.6464L15.2459 16.8639L12.6269 19.6068L16.6198 19.7832L16.04 18.5503C16.983 17.8869 17.7966 17.0519 18.4265 16.0839C19.3469 14.6691 19.8828 12.9772 19.8828 11.165H18.8977Z" fill="white"/>
    <path d="M7.03123 6.4093C7.36631 6.41234 7.69529 6.43797 8.01877 6.48438C8.01631 6.42457 8.01389 6.36473 8.01389 6.30371C8.01389 3.37098 10.3997 0.985117 13.3325 0.985117C16.2652 0.985117 18.6511 3.37098 18.6511 6.30371C18.6511 9.03078 16.5881 11.283 13.9416 11.5863C14.0362 11.9 14.1113 12.2217 14.1631 12.5513C17.2521 12.1441 19.6362 9.50316 19.6362 6.30367C19.6362 2.82227 16.814 0 13.3325 0C9.85107 0 7.02881 2.82227 7.02881 6.30371C7.02881 6.3391 7.03123 6.37391 7.03123 6.4093Z" fill="white"/>
    <path d="M13.6871 4.18945H12.417C12.2143 4.18945 12.0496 4.35363 12.0496 4.55629V8.30078C12.0496 8.50344 12.2144 8.66762 12.417 8.66762H12.6013C12.804 8.66762 12.9687 8.50344 12.9687 8.30078V7.24672H13.6871C14.6491 7.24672 15.4321 6.56066 15.4321 5.71777C15.4321 4.87551 14.6491 4.18945 13.6871 4.18945ZM13.6871 6.44164H12.9687V4.99387H13.6871C14.1431 4.99387 14.513 5.31859 14.513 5.71773C14.5129 6.11754 14.1431 6.44164 13.6871 6.44164Z" fill="white"/>
  </g>
  <defs>
    <clipPath id="clip0_8_631">
      <rect width="20" height="20" fill="white"/>
    </clipPath>
  </defs>
</svg>