<svg xmlns="http://www.w3.org/2000/svg" width="24" height="24" viewBox="0 0 24 24" fill="none">
  <path d="M17 4.8C16.8895 4.8 16.8 4.88954 16.8 5V7C16.8 7.11046 16.8895 7.2 17 7.2H19C19.1105 7.2 19.2 7.11046 19.2 7V5C19.2 4.88954 19.1105 4.8 19 4.8H17ZM16.8 19.2V18.6C16.8 18.2686 17.0686 18 17.4 18C17.7314 18 18 18.2686 18 18.6V19.2H19.2V18.6C19.2 18.2686 19.4686 18 19.8 18C20.1314 18 20.4 18.2686 20.4 18.6V19.8C20.4 20.1314 20.1314 20.4 19.8 20.4H15C14.6686 20.4 14.4 20.1314 14.4 19.8V18.6C14.4 18.2686 14.6686 18 15 18C15.3314 18 15.6 18.2686 15.6 18.6V19.2H16.8ZM13.2 10.8H13.8C14.1314 10.8 14.4 11.0686 14.4 11.4C14.4 11.7314 14.1314 12 13.8 12H11.4C11.0686 12 10.8 11.7314 10.8 11.4C10.8 11.0686 11.0686 10.8 11.4 10.8H12V9.6H10.2C9.86863 9.6 9.6 9.33137 9.6 9C9.6 8.66863 9.86863 8.4 10.2 8.4H13.8C14.1314 8.4 14.4 8.66863 14.4 9C14.4 9.33137 14.1314 9.6 13.8 9.6H13.2V10.8ZM19.2 12H18.6C18.2686 12 18 11.7314 18 11.4C18 11.0686 18.2686 10.8 18.6 10.8H19.2V10.2C19.2 9.86863 19.4686 9.6 19.8 9.6C20.1314 9.6 20.4 9.86863 20.4 10.2V12.6C20.4 12.9314 20.1314 13.2 19.8 13.2C19.4686 13.2 19.2 12.9314 19.2 12.6V12ZM13.2 14.4H12.6C12.2686 14.4 12 14.1314 12 13.8C12 13.4686 12.2686 13.2 12.6 13.2H13.8C14.1314 13.2 14.4 13.4686 14.4 13.8V16.2C14.4 16.5314 14.1314 16.8 13.8 16.8H10.2C9.86863 16.8 9.6 16.5314 9.6 16.2C9.6 15.8686 9.86863 15.6 10.2 15.6H13.2V14.4ZM17 3.6H19C19.7732 3.6 20.4 4.2268 20.4 5V7C20.4 7.7732 19.7732 8.4 19 8.4H17C16.2268 8.4 15.6 7.7732 15.6 7V5C15.6 4.2268 16.2268 3.6 17 3.6ZM5 3.6H7C7.7732 3.6 8.4 4.2268 8.4 5V7C8.4 7.7732 7.7732 8.4 7 8.4H5C4.2268 8.4 3.6 7.7732 3.6 7V5C3.6 4.2268 4.2268 3.6 5 3.6ZM5 4.8C4.88954 4.8 4.8 4.88954 4.8 5V7C4.8 7.11046 4.88954 7.2 5 7.2H7C7.11046 7.2 7.2 7.11046 7.2 7V5C7.2 4.88954 7.11046 4.8 7 4.8H5ZM5 15.6H7C7.7732 15.6 8.4 16.2268 8.4 17V19C8.4 19.7732 7.7732 20.4 7 20.4H5C4.2268 20.4 3.6 19.7732 3.6 19V17C3.6 16.2268 4.2268 15.6 5 15.6ZM5 16.8C4.88954 16.8 4.8 16.8895 4.8 17V19C4.8 19.1105 4.88954 19.2 5 19.2H7C7.11046 19.2 7.2 19.1105 7.2 19V17C7.2 16.8895 7.11046 16.8 7 16.8H5ZM13.2 4.8H10.2C9.86863 4.8 9.6 4.53137 9.6 4.2C9.6 3.86863 9.86863 3.6 10.2 3.6H13.8C14.1314 3.6 14.4 3.86863 14.4 4.2V6.6C14.4 6.93137 14.1314 7.2 13.8 7.2C13.4686 7.2 13.2 6.93137 13.2 6.6V4.8ZM10.2 7.2C9.86863 7.2 9.6 6.93137 9.6 6.6C9.6 6.26863 9.86863 6 10.2 6H11.4C11.7314 6 12 6.26863 12 6.6C12 6.93137 11.7314 7.2 11.4 7.2H10.2ZM4.2 14.4C3.86863 14.4 3.6 14.1314 3.6 13.8C3.6 13.4686 3.86863 13.2 4.2 13.2H6.6C6.93137 13.2 7.2 13.4686 7.2 13.8C7.2 14.1314 6.93137 14.4 6.6 14.4H4.2ZM9 14.4C8.66863 14.4 8.4 14.1314 8.4 13.8C8.4 13.4686 8.66863 13.2 9 13.2H10.2C10.5314 13.2 10.8 13.4686 10.8 13.8C10.8 14.1314 10.5314 14.4 10.2 14.4H9ZM10.8 19.2V19.8C10.8 20.1314 10.5314 20.4 10.2 20.4C9.86863 20.4 9.6 20.1314 9.6 19.8V18.6C9.6 18.2686 9.86863 18 10.2 18H12.6C12.9314 18 13.2 18.2686 13.2 18.6C13.2 18.9314 12.9314 19.2 12.6 19.2H10.8ZM8.4 10.8H9C9.33137 10.8 9.6 11.0686 9.6 11.4C9.6 11.7314 9.33137 12 9 12H7.8C7.46863 12 7.2 11.7314 7.2 11.4V10.8H6.6C6.26863 10.8 6 10.5314 6 10.2C6 9.86863 6.26863 9.6 6.6 9.6H7.8C8.13137 9.6 8.4 9.86863 8.4 10.2V10.8ZM3.6 10.2C3.6 9.86863 3.86863 9.6 4.2 9.6C4.53137 9.6 4.8 9.86863 4.8 10.2V11.4C4.8 11.7314 4.53137 12 4.2 12C3.86863 12 3.6 11.7314 3.6 11.4V10.2ZM15.6 10.2C15.6 9.86863 15.8686 9.6 16.2 9.6C16.5314 9.6 16.8 9.86863 16.8 10.2V12.6C16.8 12.9314 16.5314 13.2 16.2 13.2C15.8686 13.2 15.6 12.9314 15.6 12.6V10.2ZM18 15.6V15C18 14.6686 18.2686 14.4 18.6 14.4H19.8C20.1314 14.4 20.4 14.6686 20.4 15C20.4 15.3314 20.1314 15.6 19.8 15.6H19.2V16.2C19.2 16.5314 18.9314 16.8 18.6 16.8H16.2C15.8686 16.8 15.6 16.5314 15.6 16.2V15C15.6 14.6686 15.8686 14.4 16.2 14.4C16.5314 14.4 16.8 14.6686 16.8 15V15.6H18ZM1.2 5.4C1.2 5.73137 0.931371 6 0.6 6C0.268629 6 0 5.73137 0 5.4V3C0 1.34315 1.34315 0 3 0H5.4C5.73137 0 6 0.268629 6 0.6C6 0.931371 5.73137 1.2 5.4 1.2H3C2.00589 1.2 1.2 2.00589 1.2 3V5.4ZM18.6 1.2C18.2686 1.2 18 0.931371 18 0.6C18 0.268629 18.2686 0 18.6 0H21C22.6569 0 24 1.34315 24 3V5.4C24 5.73137 23.7314 6 23.4 6C23.0686 6 22.8 5.73137 22.8 5.4V3C22.8 2.00589 21.9941 1.2 21 1.2H18.6ZM5.4 22.8C5.73137 22.8 6 23.0686 6 23.4C6 23.7314 5.73137 24 5.4 24H3C1.34315 24 0 22.6569 0 21V18.6C0 18.2686 0.268629 18 0.6 18C0.931371 18 1.2 18.2686 1.2 18.6V21C1.2 21.9941 2.00589 22.8 3 22.8H5.4ZM22.8 18.6C22.8 18.2686 23.0686 18 23.4 18C23.7314 18 24 18.2686 24 18.6V21C24 22.6569 22.6569 24 21 24H18.6C18.2686 24 18 23.7314 18 23.4C18 23.0686 18.2686 22.8 18.6 22.8H21C21.9941 22.8 22.8 21.9941 22.8 21V18.6Z" fill="url(#paint0_linear_8_461)"/>
  <defs>
    <linearGradient id="paint0_linear_8_461" x1="13.7486" y1="24" x2="28.3051" y2="-16.1063" gradientUnits="userSpaceOnUse">
      <stop stop-color="#5656E7"/>
      <stop offset="1" stop-color="#DD31FF"/>
    </linearGradient>
  </defs>
</svg>