<svg xmlns="http://www.w3.org/2000/svg" width="231" height="231" viewBox="0 0 231 231" fill="none">
  <g clip-path="url(#clip0_8_724)">
    <path d="M35.9334 25.6665C33.2105 25.6665 30.5991 26.7482 28.6737 28.6735C26.7484 30.5989 25.6667 33.2103 25.6667 35.9332V76.9998H77V25.6665H35.9334ZM64.1667 64.1665H38.5V38.4998H64.1667V64.1665Z" fill="white"/>
    <path d="M25.6667 195.067C25.6667 197.79 26.7484 200.401 28.6737 202.326C30.5991 204.252 33.2105 205.333 35.9334 205.333H77V154H25.6667V195.067ZM38.5 166.833H64.1667V192.5H38.5V166.833Z" fill="white"/>
    <path d="M154 205.333H195.067C197.79 205.333 200.401 204.252 202.326 202.326C204.252 200.401 205.333 197.79 205.333 195.067V154H154V205.333ZM166.833 166.833H192.5V192.5H166.833V166.833Z" fill="white"/>
    <path d="M195.067 25.6665H154V76.9998H205.333V35.9332C205.333 33.2103 204.252 30.5989 202.326 28.6735C200.401 26.7482 197.79 25.6665 195.067 25.6665ZM192.5 64.1665H166.833V38.4998H192.5V64.1665Z" fill="white"/>
    <path d="M128.333 64.1668V51.3335H102.667V77.0002H115.5V64.1668H128.333Z" fill="white"/>
    <path d="M89.8333 77H77V89.8333H89.8333V77Z" fill="white"/>
    <path d="M115.5 89.8335H89.8333V102.667H115.5V89.8335Z" fill="white"/>
    <path d="M128.333 38.4998V51.3332H141.167V25.6665H89.8333V51.3332H102.667V38.4998H128.333Z" fill="white"/>
    <path d="M38.5 89.8335H25.6667V115.5H38.5V89.8335Z" fill="white"/>
    <path d="M77 102.667V115.5H64.1667V89.8335H51.3334V115.5H38.5V128.333H25.6667V141.167H51.3334V128.333H64.1667V141.167H77V128.333H89.8334V102.667H77Z" fill="white"/>
    <path d="M128.333 102.667H141.167V115.5H154V102.667H166.833V89.8332H141.167V64.1665H128.333V76.9998H115.5V89.8332H128.333V102.667Z" fill="white"/>
    <path d="M115.5 192.5H89.8333V205.333H141.167V192.5H128.333V179.667H115.5V192.5Z" fill="white"/>
    <path d="M141.167 128.333V115.5H128.333V102.667H115.5V115.5H102.667V128.333H115.5V141.167H128.333V128.333H141.167Z" fill="white"/>
    <path d="M205.333 128.333H192.5V141.167H205.333V128.333Z" fill="white"/>
    <path d="M179.667 128.333H141.167V141.167H179.667V128.333Z" fill="white"/>
    <path d="M192.5 89.8335H179.667V102.667H166.833V115.5H179.667V128.333H192.5V115.5H205.333V102.667H192.5V89.8335Z" fill="white"/>
    <path d="M141.167 141.167H128.333V179.667H141.167V141.167Z" fill="white"/>
    <path d="M89.8333 179.667H102.667V166.833H115.5V154H102.667V128.333H89.8333V179.667Z" fill="white"/>
  </g>
  <defs>
    <clipPath id="clip0_8_724">
      <rect width="231" height="231" fill="white"/>
    </clipPath>
  </defs>
</svg>