<svg xmlns="http://www.w3.org/2000/svg" width="20" height="20" viewBox="0 0 20 20" fill="none">
  <path d="M16.6569 3H14.3971C14.024 3 13.7362 3.30154 13.7362 3.66769C13.7362 4.03385 14.0346 4.33538 14.3971 4.33538H16.6569V7.04923C16.6569 7.42615 16.9554 7.71692 17.3178 7.71692C17.6802 7.71692 17.9787 7.41539 17.9787 7.04923V4.34615C17.9787 3.60308 17.3817 3 16.6462 3H16.6569ZM2.66089 7.72769C3.03398 7.72769 3.32179 7.42615 3.32179 7.06V4.34615H5.61359C5.98668 4.34615 6.27448 4.04462 6.27448 3.67846C6.27448 3.31231 5.97602 3.01077 5.61359 3.01077H3.33245C2.59694 3.01077 2 3.61385 2 4.35692V7.07077C2 7.44769 2.29847 7.73846 2.66089 7.73846V7.72769ZM5.61359 15.6538H3.33245V12.94C3.33245 12.5631 3.03398 12.2723 2.67155 12.2723C2.30913 12.2723 2.01066 12.5738 2.01066 12.94V15.6538C2.01066 16.3969 2.60759 17 3.3431 17H5.61359C5.98668 17 6.27448 16.6985 6.27448 16.3323C6.27448 15.9662 5.97602 15.6646 5.61359 15.6646V15.6538ZM17.3284 12.2723C16.9554 12.2723 16.6676 12.5738 16.6676 12.94V15.6538H14.4077C14.0346 15.6538 13.7468 15.9554 13.7468 16.3215C13.7468 16.6877 14.0453 16.9892 14.4077 16.9892H16.6676C17.4031 16.9892 18 16.3862 18 15.6431V12.9292C18 12.5523 17.7015 12.2615 17.3391 12.2615L17.3284 12.2723Z" fill="url(#paint0_linear_8_541)"/>
  <defs>
    <linearGradient id="paint0_linear_8_541" x1="11.1657" y1="17" x2="18.804" y2="-7.05146" gradientUnits="userSpaceOnUse">
      <stop stop-color="#5656E7"/>
      <stop offset="1" stop-color="#DD31FF"/>
    </linearGradient>
  </defs>
</svg>