<svg xmlns="http://www.w3.org/2000/svg" width="20" height="20" viewBox="0 0 20 20" fill="none">
  <path d="M17.8125 1.875H15.1625C14.725 1.875 14.3875 2.225 14.3875 2.65C14.3875 3.075 14.7375 3.425 15.1625 3.425H17.8125V6.575C17.8125 7.0125 18.1625 7.35 18.5875 7.35C19.0125 7.35 19.3625 7 19.3625 6.575V3.4375C19.3625 2.575 18.6625 1.875 17.8 1.875H17.8125ZM1.4 7.3625C1.8375 7.3625 2.175 7.0125 2.175 6.5875V3.4375H4.8625C5.3 3.4375 5.6375 3.0875 5.6375 2.6625C5.6375 2.2375 5.2875 1.8875 4.8625 1.8875H2.1875C1.325 1.8875 0.625 2.5875 0.625 3.45V6.6C0.625 7.0375 0.975 7.375 1.4 7.375V7.3625ZM4.8625 16.5625H2.1875V13.4125C2.1875 12.975 1.8375 12.6375 1.4125 12.6375C0.9875 12.6375 0.6375 12.9875 0.6375 13.4125V16.5625C0.6375 17.425 1.3375 18.125 2.2 18.125H4.8625C5.3 18.125 5.6375 17.775 5.6375 17.35C5.6375 16.925 5.2875 16.575 4.8625 16.575V16.5625ZM18.6 12.6375C18.1625 12.6375 17.825 12.9875 17.825 13.4125V16.5625H15.175C14.7375 16.5625 14.4 16.9125 14.4 17.3375C14.4 17.7625 14.75 18.1125 15.175 18.1125H17.825C18.6875 18.1125 19.3875 17.4125 19.3875 16.55V13.4C19.3875 12.9625 19.0375 12.625 18.6125 12.625L18.6 12.6375Z" fill="white"/>
</svg>