<svg xmlns="http://www.w3.org/2000/svg" width="20" height="20" viewBox="0 0 20 20" fill="none">
  <g clip-path="url(#clip0_8_674)">
    <path d="M13.147 8.79514C15.7953 8.79514 17.9493 10.9497 17.9493 13.5974C17.9493 16.2451 15.7953 18.3997 13.147 18.3997C10.4999 18.3997 8.34535 16.2451 8.34535 13.5974C8.34535 10.9497 10.4999 8.79514 13.147 8.79514ZM13.147 7.19482C9.61183 7.19482 6.745 10.061 6.745 13.5974C6.745 17.1338 9.61183 20 13.147 20C16.6828 20 19.5496 17.1338 19.5496 13.5974C19.5496 10.061 16.6827 7.19482 13.147 7.19482Z" fill="white"/>
    <path d="M13.3563 11.4609H11.9934C11.7755 11.4609 11.5997 11.6367 11.5997 11.854V15.8726C11.5997 16.0899 11.7755 16.2669 11.9934 16.2669H12.1912C12.4085 16.2669 12.5848 16.0899 12.5848 15.8726V14.7416H13.3563C14.3884 14.7416 15.2283 14.0061 15.2283 13.101C15.2283 12.197 14.3884 11.4609 13.3563 11.4609ZM13.3563 13.8779H12.5848V12.324H13.3563C13.8452 12.324 14.2426 12.6731 14.2426 13.101C14.2426 13.5288 13.8452 13.8779 13.3563 13.8779Z" fill="white"/>
    <path d="M5.64028 0C2.77345 0 0.450439 1.1316 0.450439 2.52809V3.8782C0.450439 5.27465 2.77345 6.40625 5.64028 6.40625C8.50649 6.40625 10.8301 5.27465 10.8301 3.87816V2.52809C10.8301 1.1316 8.50649 0 5.64028 0ZM5.64028 1.0498C8.16774 1.0498 9.7797 2.02027 9.7797 2.52809C9.7797 3.0359 8.16774 4.00637 5.64028 4.00637C3.11282 4.00637 1.50087 3.0359 1.50087 2.52809C1.50087 2.02027 3.11282 1.0498 5.64028 1.0498Z" fill="white"/>
    <path d="M5.63964 8.43736C6.59971 8.43736 7.49878 8.30919 8.27085 8.08822C7.52803 8.7413 6.92014 9.54818 6.49104 10.454C6.21514 10.476 5.93073 10.4893 5.6396 10.4893C2.77401 10.4893 0.450378 9.35591 0.450378 7.96005V6.37314C0.450378 6.34751 0.469285 6.32431 0.494949 6.32185C0.507761 6.31818 0.520574 6.32431 0.530339 6.33771C0.524246 6.33771 0.530339 6.35603 0.565144 6.44271C1.06811 7.58286 3.14878 8.43736 5.63964 8.43736Z" fill="white"/>
    <path d="M5.78368 13.5972C5.78368 13.9085 5.80259 14.2124 5.84411 14.5128C5.77696 14.5164 5.70982 14.5164 5.63966 14.5164C2.77407 14.5164 0.450439 13.386 0.450439 11.9908V10.399C0.450439 10.377 0.469346 10.3551 0.49501 10.3514C0.515752 10.3489 0.529814 10.3612 0.538955 10.3758C0.527354 10.3599 0.513916 10.3514 0.565205 10.4735C1.06813 11.6124 3.14884 12.4681 5.63966 12.4681C5.71657 12.4681 5.79653 12.4681 5.87282 12.4608C5.81235 12.8324 5.78368 13.2103 5.78368 13.5972Z" fill="white"/>
    <path d="M7.547 18.3702C6.95802 18.4861 6.3147 18.5459 5.63966 18.5459C2.77407 18.5459 0.450439 17.4168 0.450439 16.0179V14.4297C0.450439 14.4041 0.469346 14.3846 0.49501 14.3821C0.514541 14.3784 0.533447 14.3882 0.53958 14.4077C0.527354 14.3919 0.510908 14.376 0.565205 14.5005C1.06813 15.6431 3.14884 16.4976 5.63966 16.4976C5.88626 16.4976 6.1322 16.4878 6.36903 16.472C6.66384 17.1666 7.06423 17.8074 7.547 18.3702Z" fill="white"/>
  </g>
  <defs>
    <clipPath id="clip0_8_674">
      <rect width="20" height="20" fill="white"/>
    </clipPath>
  </defs>
</svg>