<svg xmlns="http://www.w3.org/2000/svg" width="22" height="22" viewBox="0 0 22 22" fill="none">
  <path d="M18.5915 12.24C18.6351 11.9084 18.6584 11.5745 18.6615 11.24C18.6584 10.9056 18.6351 10.5716 18.5915 10.24L20.7565 8.54502C20.8543 8.47035 20.9211 8.36225 20.9441 8.2414C20.9672 8.12056 20.9449 7.99546 20.8815 7.89002L18.8315 4.33502C18.7721 4.22839 18.6758 4.14716 18.5607 4.10664C18.4455 4.06611 18.3196 4.0691 18.2065 4.11502L15.6515 5.14502C15.1198 4.73927 14.5385 4.4032 13.9215 4.14502L13.5365 1.43002C13.5195 1.30989 13.4594 1.20002 13.3674 1.12091C13.2754 1.04179 13.1578 0.99883 13.0365 1.00002H8.9265C8.80517 0.99883 8.68755 1.04179 8.59556 1.12091C8.50356 1.20002 8.44348 1.30989 8.4265 1.43002L8.0415 4.14502C7.42374 4.4016 6.84215 4.73777 6.3115 5.14502L3.7465 4.11502C3.63342 4.0691 3.50745 4.06611 3.39232 4.10664C3.2772 4.14716 3.18087 4.22839 3.1215 4.33502L1.0715 7.89002C1.0081 7.99546 0.985803 8.12056 1.00886 8.2414C1.03193 8.36225 1.09873 8.47035 1.1965 8.54502L3.3565 10.24C3.31311 10.5717 3.28973 10.9056 3.2865 11.24C3.28956 11.5745 3.31294 11.9084 3.3565 12.24L1.1965 13.935C1.09873 14.0097 1.03193 14.1178 1.00886 14.2386C0.985803 14.3595 1.0081 14.4846 1.0715 14.59L3.1215 18.145C3.18087 18.2517 3.2772 18.3329 3.39232 18.3734C3.50745 18.4139 3.63342 18.411 3.7465 18.365L6.3015 17.335C6.83315 17.7408 7.41454 18.0768 8.0315 18.335L8.4165 21.05C8.43348 21.1702 8.49356 21.28 8.58556 21.3591C8.67755 21.4383 8.79517 21.4812 8.9165 21.48H13.0165C13.1378 21.4812 13.2554 21.4383 13.3474 21.3591C13.4394 21.28 13.4995 21.1702 13.5165 21.05L13.9015 18.335C14.5193 18.0785 15.1008 17.7423 15.6315 17.335L18.1865 18.365C18.2996 18.411 18.4255 18.4139 18.5407 18.3734C18.6558 18.3329 18.7521 18.2517 18.8115 18.145L20.8615 14.59C20.9249 14.4846 20.9472 14.3595 20.9241 14.2386C20.9011 14.1178 20.8343 14.0097 20.7365 13.935L18.5915 12.24ZM10.9765 14.83C10.2662 14.831 9.57167 14.6213 8.98064 14.2274C8.38961 13.8336 7.92869 13.2732 7.65621 12.6173C7.38372 11.9614 7.31191 11.2394 7.44987 10.5427C7.58782 9.846 7.92934 9.20585 8.43122 8.70328C8.93309 8.20071 9.57275 7.8583 10.2693 7.71937C10.9658 7.58045 11.6879 7.65125 12.3442 7.92282C13.0005 8.19439 13.5614 8.65453 13.9561 9.24501C14.3508 9.83549 14.5615 10.5298 14.5615 11.24C14.5622 11.7112 14.4699 12.178 14.29 12.6135C14.1102 13.049 13.8462 13.4448 13.5132 13.7782C13.1803 14.1117 12.7849 14.3762 12.3496 14.5567C11.9143 14.7371 11.4477 14.83 10.9765 14.83Z" stroke="url(#paint0_linear_8_590)" stroke-linecap="round" stroke-linejoin="round"/>
  <defs>
    <linearGradient id="paint0_linear_8_590" x1="12.4302" y1="21.48" x2="25.101" y2="-12.5321" gradientUnits="userSpaceOnUse">
      <stop stop-color="#5656E7"/>
      <stop offset="1" stop-color="#DD31FF"/>
    </linearGradient>
  </defs>
</svg>