<svg xmlns="http://www.w3.org/2000/svg" width="24" height="24" viewBox="0 0 24 24" fill="none">
  <path d="M7 14C8.10457 14 9 13.1046 9 12C9 10.8954 8.10457 10 7 10C5.89543 10 5 10.8954 5 12C5 13.1046 5.89543 14 7 14Z" stroke="url(#paint0_linear_8_448)" stroke-width="1.5" stroke-linejoin="round"/>
  <path d="M17 8C18.1046 8 19 7.10457 19 6C19 4.89543 18.1046 4 17 4C15.8954 4 15 4.89543 15 6C15 7.10457 15.8954 8 17 8Z" stroke="url(#paint1_linear_8_448)" stroke-width="1.5" stroke-linejoin="round"/>
  <path d="M15 7L8.5 11" stroke="url(#paint2_linear_8_448)" stroke-width="1.5"/>
  <path d="M17 20C18.1046 20 19 19.1046 19 18C19 16.8954 18.1046 16 17 16C15.8954 16 15 16.8954 15 18C15 19.1046 15.8954 20 17 20Z" stroke="url(#paint3_linear_8_448)" stroke-width="1.5" stroke-linejoin="round"/>
  <path d="M8.5 13.5L15 17" stroke="url(#paint4_linear_8_448)" stroke-width="1.5"/>
  <defs>
    <linearGradient id="paint0_linear_8_448" x1="7.29143" y1="14" x2="9.71752" y2="7.31562" gradientUnits="userSpaceOnUse">
      <stop stop-color="#5656E7"/>
      <stop offset="1" stop-color="#DD31FF"/>
    </linearGradient>
    <linearGradient id="paint1_linear_8_448" x1="17.2914" y1="8" x2="19.7175" y2="1.31562" gradientUnits="userSpaceOnUse">
      <stop stop-color="#5656E7"/>
      <stop offset="1" stop-color="#DD31FF"/>
    </linearGradient>
    <linearGradient id="paint2_linear_8_448" x1="12.2236" y1="11" x2="13.8329" y2="3.79453" gradientUnits="userSpaceOnUse">
      <stop stop-color="#5656E7"/>
      <stop offset="1" stop-color="#DD31FF"/>
    </linearGradient>
    <linearGradient id="paint3_linear_8_448" x1="17.2914" y1="20" x2="19.7175" y2="13.3156" gradientUnits="userSpaceOnUse">
      <stop stop-color="#5656E7"/>
      <stop offset="1" stop-color="#DD31FF"/>
    </linearGradient>
    <linearGradient id="paint4_linear_8_448" x1="12.2236" y1="17" x2="13.4696" y2="10.6242" gradientUnits="userSpaceOnUse">
      <stop stop-color="#5656E7"/>
      <stop offset="1" stop-color="#DD31FF"/>
    </linearGradient>
  </defs>
</svg>