<svg xmlns="http://www.w3.org/2000/svg" width="25" height="25" viewBox="0 0 25 25" fill="none">
  <path opacity="0.4" d="M12.6671 11.3231C12.5629 11.3127 12.4379 11.3127 12.3234 11.3231C9.84424 11.2397 7.87549 9.2085 7.87549 6.7085C7.87549 4.15641 9.93799 2.0835 12.5004 2.0835C15.0525 2.0835 17.1254 4.15641 17.1254 6.7085C17.115 9.2085 15.1463 11.2397 12.6671 11.3231Z" stroke="white" stroke-linecap="round" stroke-linejoin="round"/>
  <path d="M7.45898 15.1665C4.93815 16.854 4.93815 19.604 7.45898 21.2811C10.3236 23.1978 15.0215 23.1978 17.8861 21.2811C20.4069 19.5936 20.4069 16.8436 17.8861 15.1665C15.0319 13.2603 10.334 13.2603 7.45898 15.1665Z" stroke="white" stroke-linecap="round" stroke-linejoin="round"/>
</svg>